<svg width="112" height="117" viewBox="0 0 112 117" fill="none" xmlns="http://www.w3.org/2000/svg">
<path d="M56 10.9688C46.8288 10.9688 38.0333 14.7746 31.5483 21.5492C25.0633 28.3237 21.42 37.5119 21.42 47.0925V49.725C22.82 69.5175 38.5467 85.4344 56 106.031C74.2233 84.5325 90.58 68.25 90.58 47.0925C90.58 37.5119 86.9368 28.3237 80.4518 21.5492C73.9668 14.7746 65.1712 10.9688 56 10.9688ZM56 29.7375C59.2914 29.7375 62.5089 30.7574 65.2453 32.6682C67.9817 34.5789 70.114 37.2946 71.3725 40.4717C72.631 43.6488 72.9591 47.1445 72.3153 50.5164C71.6715 53.8883 70.0847 56.985 67.7556 59.4146C65.4266 61.8441 62.4601 63.4974 59.2313 64.1653C56.0026 64.8331 52.6568 64.4855 49.6172 63.1663C46.5777 61.8472 43.981 59.6158 42.1558 56.7546C40.3305 53.8934 39.3587 50.5308 39.3633 47.0925C39.3695 42.4874 41.125 38.0732 44.2444 34.8192C47.3637 31.5652 51.5917 29.7375 56 29.7375Z" stroke="black" stroke-width="2" stroke-linecap="round" stroke-linejoin="round"/>
</svg>
