<svg width="119" height="114" viewBox="0 0 119 114" fill="none" xmlns="http://www.w3.org/2000/svg">
<path d="M9.91666 80.75H109.083M59.5 33.25C59.5 33.25 66.9375 28.3385 66.9375 22.2822C66.9375 11.571 52.0625 11.571 52.0625 22.2822C52.0625 28.3385 59.5 33.25 59.5 33.25ZM59.5 33.25C81.2472 33.25 99.1766 48.8157 101.646 68.875M59.5 33.25C37.7527 33.25 19.8234 48.8157 17.3542 68.875M14.875 80.75L17.9541 92.5537C18.4904 94.6089 19.7283 96.4335 21.4712 97.7374C23.2141 99.0413 25.3619 99.7496 27.5733 99.75H91.4217C93.6331 99.7496 95.7809 99.0413 97.5238 97.7374C99.2667 96.4335 100.505 94.6089 101.041 92.5537L104.125 80.75" stroke="black" stroke-width="2" stroke-linecap="round" stroke-linejoin="round"/>
</svg>
