<svg width="107" height="107" viewBox="0 0 107 107" fill="none" xmlns="http://www.w3.org/2000/svg">
<path d="M13.375 53.5C33.4375 53.5 53.5 33.4375 53.5 13.375C53.5 33.4375 73.5625 53.5 93.625 53.5C73.5625 53.5 53.5 73.5625 53.5 93.625C53.5 73.5625 33.4375 53.5 13.375 53.5ZM8.91666 86.9375C12.6304 86.9375 20.0625 79.5054 20.0625 75.7916C20.0625 79.5054 27.4945 86.9375 31.2083 86.9375C27.4945 86.9375 20.0625 94.3695 20.0625 98.0833C20.0625 94.3695 12.6304 86.9375 8.91666 86.9375ZM71.3333 22.2916C75.7917 22.2916 84.7083 13.375 84.7083 8.91663C84.7083 13.375 93.625 22.2916 98.0833 22.2916C93.625 22.2916 84.7083 31.2083 84.7083 35.6666C84.7083 31.2083 75.7917 22.2916 71.3333 22.2916Z" stroke="black" stroke-width="2" stroke-linecap="round" stroke-linejoin="round"/>
</svg>
